# xmcd
# 
# Track frame offsets:
#	150
#	29629
#	50757
#	62049
#	79394
#	96480
#	117582
#	137077
#	161747
#	177150
#	198142
#	219801
#	235695
#	256085
#
# Disc length: 3548 seconds
#
# Revision: 1
# Processed by: cddbd v1.4PL0 Copyright (c) Steve Scherf et al.
# Submitted via: Audio-CD-Archiv 2.10.440
#
DISCID=c70dda0e
DTITLE=Bruce Springsteen - Human Touch
DYEAR=1900
DGENRE=blues
TTITLE0=Human Touch
TTITLE1=Soul Driver
TTITLE2=57 Channels (And Nothin' On)
TTITLE3=Cross My Heart
TTITLE4=Gloria's Eyes
TTITLE5=With Every Wish
TTITLE6=Roll Of The Dice
TTITLE7=Real World
TTITLE8=All Or Nothin' At All
TTITLE9=Man's Job
TTITLE10=I Wish I Were Blind
TTITLE11=The Long Goodbye
TTITLE12=Real Man
TTITLE13=Pony Boy
EXTD=
EXTT0=
EXTT1=
EXTT2=
EXTT3=
EXTT4=
EXTT5=
EXTT6=
EXTT7=
EXTT8=
EXTT9=
EXTT10=
EXTT11=
EXTT12=
EXTT13=
PLAYORDER=
